<svg width="106" height="12" viewBox="0 0 106 12" fill="none" xmlns="http://www.w3.org/2000/svg">
<path d="M6.15754 11H0.58625V1.00586H6.15754V2.03809H1.74836V5.25781H5.89094V6.2832H1.74836V9.96094H6.15754V11ZM10.293 7.16504L7.68852 3.50781H8.98051L10.9561 6.37891L12.9248 3.50781H14.2032L11.5987 7.16504L14.3399 11H13.0547L10.9561 7.96484L8.83695 11H7.5518L10.293 7.16504ZM18.53 10.2002C18.7306 10.2002 18.9242 10.1865 19.1111 10.1592C19.2979 10.1273 19.4461 10.0954 19.5554 10.0635V10.9316C19.4324 10.9909 19.2501 11.0387 19.0086 11.0752C18.7716 11.1162 18.5574 11.1367 18.366 11.1367C16.9168 11.1367 16.1921 10.3734 16.1921 8.84668V4.38965H15.1189V3.84277L16.1921 3.37109L16.6707 1.77148H17.3269V3.50781H19.5007V4.38965H17.3269V8.79883C17.3269 9.25 17.434 9.59635 17.6482 9.83789C17.8624 10.0794 18.1563 10.2002 18.53 10.2002ZM24.7573 3.37109C25.09 3.37109 25.3885 3.39844 25.6528 3.45312L25.4956 4.50586C25.1857 4.4375 24.9123 4.40332 24.6753 4.40332C24.0692 4.40332 23.5496 4.64941 23.1167 5.1416C22.6883 5.63379 22.4741 6.24674 22.4741 6.98047V11H21.3393V3.50781H22.2759L22.4057 4.89551H22.4604C22.7384 4.40788 23.0734 4.0319 23.4653 3.76758C23.8572 3.50326 24.2879 3.37109 24.7573 3.37109ZM30.4992 11.1367C29.3918 11.1367 28.5168 10.7995 27.8742 10.125C27.2362 9.45052 26.9172 8.514 26.9172 7.31543C26.9172 6.10775 27.2134 5.14844 27.8059 4.4375C28.4029 3.72656 29.2027 3.37109 30.2053 3.37109C31.1441 3.37109 31.8869 3.68099 32.4338 4.30078C32.9807 4.91602 33.2541 5.72949 33.2541 6.74121V7.45898H28.093C28.1158 8.33854 28.3368 9.00618 28.7561 9.46191C29.1799 9.91764 29.7746 10.1455 30.5402 10.1455C31.3469 10.1455 32.1444 9.97689 32.9328 9.63965V10.6514C32.5318 10.8245 32.1512 10.9476 31.7912 11.0205C31.4357 11.098 31.0051 11.1367 30.4992 11.1367ZM30.1916 4.32129C29.59 4.32129 29.1092 4.51725 28.7492 4.90918C28.3938 5.30111 28.1841 5.84342 28.1203 6.53613H32.0373C32.0373 5.82064 31.8778 5.27376 31.5588 4.89551C31.2398 4.5127 30.7841 4.32129 30.1916 4.32129ZM45.0253 11V6.12598C45.0253 5.52897 44.8977 5.08236 44.6425 4.78613C44.3873 4.48535 43.9908 4.33496 43.453 4.33496C42.7467 4.33496 42.2249 4.53776 41.8876 4.94336C41.5504 5.34896 41.3818 5.97331 41.3818 6.81641V11H40.247V6.12598C40.247 5.52897 40.1194 5.08236 39.8642 4.78613C39.609 4.48535 39.2102 4.33496 38.6679 4.33496C37.957 4.33496 37.4351 4.54915 37.1025 4.97754C36.7743 5.40137 36.6103 6.09863 36.6103 7.06934V11H35.4755V3.50781H36.3984L36.5829 4.5332H36.6376C36.8518 4.16862 37.1526 3.88379 37.54 3.67871C37.9319 3.47363 38.3694 3.37109 38.8525 3.37109C40.0237 3.37109 40.7893 3.79492 41.1493 4.64258H41.204C41.4273 4.25065 41.7509 3.94076 42.1747 3.71289C42.5986 3.48503 43.0816 3.37109 43.6239 3.37109C44.4716 3.37109 45.1051 3.58984 45.5243 4.02734C45.9482 4.46029 46.1601 5.15527 46.1601 6.1123V11H45.0253ZM51.9498 11.1367C50.8424 11.1367 49.9674 10.7995 49.3248 10.125C48.6868 9.45052 48.3678 8.514 48.3678 7.31543C48.3678 6.10775 48.664 5.14844 49.2565 4.4375C49.8535 3.72656 50.6533 3.37109 51.6559 3.37109C52.5947 3.37109 53.3375 3.68099 53.8844 4.30078C54.4313 4.91602 54.7047 5.72949 54.7047 6.74121V7.45898H49.5436C49.5664 8.33854 49.7874 9.00618 50.2067 9.46191C50.6305 9.91764 51.2252 10.1455 51.9909 10.1455C52.7975 10.1455 53.595 9.97689 54.3834 9.63965V10.6514C53.9824 10.8245 53.6019 10.9476 53.2418 11.0205C52.8864 11.098 52.4557 11.1367 51.9498 11.1367ZM51.6422 4.32129C51.0407 4.32129 50.5599 4.51725 50.1998 4.90918C49.8444 5.30111 49.6347 5.84342 49.5709 6.53613H53.4879C53.4879 5.82064 53.3284 5.27376 53.0094 4.89551C52.6904 4.5127 52.2347 4.32129 51.6422 4.32129ZM61.0138 1.00586H63.837C65.1632 1.00586 66.1225 1.2041 66.7149 1.60059C67.3074 1.99707 67.6036 2.6237 67.6036 3.48047C67.6036 4.07292 67.4373 4.56283 67.1046 4.9502C66.7764 5.33301 66.2957 5.58138 65.6622 5.69531V5.76367C67.1798 6.02344 67.9386 6.82096 67.9386 8.15625C67.9386 9.04948 67.6355 9.74674 67.0294 10.248C66.4278 10.7493 65.5847 11 64.5001 11H61.0138V1.00586ZM62.1759 5.28516H64.0899C64.9102 5.28516 65.5004 5.15755 65.8604 4.90234C66.2205 4.64258 66.4005 4.20736 66.4005 3.59668C66.4005 3.03613 66.1999 2.63281 65.7989 2.38672C65.3979 2.13607 64.7598 2.01074 63.8848 2.01074H62.1759V5.28516ZM62.1759 6.26953V10.0088H64.2608C65.0675 10.0088 65.6736 9.85384 66.0792 9.54395C66.4893 9.22949 66.6944 8.73958 66.6944 8.07422C66.6944 7.45443 66.4848 6.9987 66.0655 6.70703C65.6508 6.41536 65.0173 6.26953 64.1651 6.26953H62.1759ZM74.8084 11L74.5828 9.93359H74.5281C74.1544 10.403 73.7807 10.722 73.407 10.8906C73.0379 11.0547 72.5753 11.1367 72.0193 11.1367C71.2765 11.1367 70.6932 10.9453 70.2693 10.5625C69.8501 10.1797 69.6404 9.63509 69.6404 8.92871C69.6404 7.41569 70.8504 6.62272 73.2703 6.5498L74.5418 6.50879V6.04395C74.5418 5.45605 74.4142 5.02311 74.159 4.74512C73.9083 4.46257 73.505 4.32129 72.949 4.32129C72.3247 4.32129 71.6183 4.5127 70.8299 4.89551L70.4812 4.02734C70.8504 3.82682 71.2537 3.6696 71.6912 3.55566C72.1333 3.44173 72.5753 3.38477 73.0174 3.38477C73.9106 3.38477 74.5714 3.58301 74.9998 3.97949C75.4327 4.37598 75.6492 5.01172 75.6492 5.88672V11H74.8084ZM72.2449 10.2002C72.9513 10.2002 73.505 10.0065 73.9061 9.61914C74.3117 9.23177 74.5145 8.68945 74.5145 7.99219V7.31543L73.3797 7.36328C72.4773 7.39518 71.8256 7.53646 71.4246 7.78711C71.0281 8.0332 70.8299 8.41829 70.8299 8.94238C70.8299 9.35254 70.9529 9.66471 71.199 9.87891C71.4497 10.0931 71.7983 10.2002 72.2449 10.2002ZM81.6919 3.37109C82.0246 3.37109 82.3231 3.39844 82.5874 3.45312L82.4302 4.50586C82.1203 4.4375 81.8469 4.40332 81.6099 4.40332C81.0038 4.40332 80.4842 4.64941 80.0513 5.1416C79.6229 5.63379 79.4087 6.24674 79.4087 6.98047V11H78.2739V3.50781H79.2105L79.3404 4.89551H79.395C79.673 4.40788 80.008 4.0319 80.3999 3.76758C80.7919 3.50326 81.2225 3.37109 81.6919 3.37109ZM87.7551 3.38477C88.7395 3.38477 89.5028 3.72201 90.0452 4.39648C90.592 5.06641 90.8655 6.0166 90.8655 7.24707C90.8655 8.47754 90.5898 9.43457 90.0383 10.1182C89.4914 10.7972 88.7304 11.1367 87.7551 11.1367C87.2675 11.1367 86.8209 11.0479 86.4153 10.8701C86.0142 10.6878 85.677 10.4098 85.4036 10.0361H85.3215L85.0823 11H84.2688V0.363281H85.4036V2.94727C85.4036 3.52604 85.3853 4.04557 85.3489 4.50586H85.4036C85.9322 3.75846 86.7161 3.38477 87.7551 3.38477ZM87.5911 4.33496C86.8163 4.33496 86.258 4.55827 85.9163 5.00488C85.5745 5.44694 85.4036 6.19434 85.4036 7.24707C85.4036 8.2998 85.579 9.05404 85.9299 9.50977C86.2808 9.96094 86.8437 10.1865 87.6184 10.1865C88.3157 10.1865 88.8352 9.93359 89.177 9.42773C89.5188 8.91732 89.6897 8.18587 89.6897 7.2334C89.6897 6.25814 89.5188 5.53125 89.177 5.05273C88.8352 4.57422 88.3066 4.33496 87.5911 4.33496ZM96.2998 11.1367C95.1923 11.1367 94.3173 10.7995 93.6748 10.125C93.0367 9.45052 92.7177 8.514 92.7177 7.31543C92.7177 6.10775 93.014 5.14844 93.6064 4.4375C94.2034 3.72656 95.0032 3.37109 96.0058 3.37109C96.9446 3.37109 97.6875 3.68099 98.2343 4.30078C98.7812 4.91602 99.0546 5.72949 99.0546 6.74121V7.45898H93.8935C93.9163 8.33854 94.1373 9.00618 94.5566 9.46191C94.9804 9.91764 95.5752 10.1455 96.3408 10.1455C97.1474 10.1455 97.9449 9.97689 98.7334 9.63965V10.6514C98.3323 10.8245 97.9518 10.9476 97.5918 11.0205C97.2363 11.098 96.8056 11.1367 96.2998 11.1367ZM95.9921 4.32129C95.3906 4.32129 94.9098 4.51725 94.5498 4.90918C94.1943 5.30111 93.9847 5.84342 93.9209 6.53613H97.8379C97.8379 5.82064 97.6783 5.27376 97.3593 4.89551C97.0403 4.5127 96.5846 4.32129 95.9921 4.32129ZM104.694 3.37109C105.027 3.37109 105.325 3.39844 105.59 3.45312L105.432 4.50586C105.122 4.4375 104.849 4.40332 104.612 4.40332C104.006 4.40332 103.486 4.64941 103.053 5.1416C102.625 5.63379 102.411 6.24674 102.411 6.98047V11H101.276V3.50781H102.213L102.342 4.89551H102.397C102.675 4.40788 103.01 4.0319 103.402 3.76758C103.794 3.50326 104.225 3.37109 104.694 3.37109Z" fill="#FF6C00"/>
</svg>
